# Blender v2.80 (sub 75) OBJ File: ''
# www.blender.org
mtllib block.mtl
o Cube
v 0.520962 1.201820 -0.590023
v 0.719898 -0.328313 -1.199107
v 0.886033 0.644543 0.929198
v 1.084969 -0.885590 0.320114
v -1.084969 0.885590 -0.320114
v -0.886033 -0.644543 -0.929198
v -0.719898 0.328313 1.199107
v -0.520962 -1.201820 0.590023
vt 0.375000 0.000000
vt 0.625000 0.000000
vt 0.625000 0.250000
vt 0.375000 0.250000
vt 0.375000 0.250000
vt 0.625000 0.250000
vt 0.625000 0.500000
vt 0.375000 0.500000
vt 0.625000 0.750000
vt 0.375000 0.750000
vt 0.625000 0.750000
vt 0.625000 1.000000
vt 0.375000 1.000000
vt 0.125000 0.500000
vt 0.375000 0.500000
vt 0.375000 0.750000
vt 0.125000 0.750000
vt 0.625000 0.500000
vt 0.875000 0.500000
vt 0.875000 0.750000
vn -0.1199 0.9224 0.3672
vn 0.2201 -0.3359 0.9158
vn -0.9681 -0.1906 0.1627
vn 0.1199 -0.9224 -0.3672
vn 0.9681 0.1906 -0.1627
vn -0.2201 0.3359 -0.9158
usemtl Material
s off
f 1/1/1 5/2/1 7/3/1 3/4/1
f 4/5/2 3/6/2 7/7/2 8/8/2
f 8/8/3 7/7/3 5/9/3 6/10/3
f 6/10/4 2/11/4 4/12/4 8/13/4
f 2/14/5 1/15/5 3/16/5 4/17/5
f 6/18/6 5/19/6 1/20/6 2/11/6
